<svg xmlns="http://www.w3.org/2000/svg" width="1440" height="1024"><rect width="100%" height="100%" fill="#F9FAFB"/>
<rect x="80" y="40" width="1280" height="60" rx="8" fill="#FFFFFF" stroke="#E5E7EB"/><text x="100" y="78" font-size="18" fill="#111827">Catalog</text>
<rect x="80" y="140" width="1280" height="80" rx="8" fill="#FFFFFF" stroke="#E5E7EB"/><rect x="96" y="156" width="32" height="32" rx="8" fill="#6B7280"/><text x="140" y="170" font-size="16" fill="#6B7280">Search quizzes...</text>
<rect x="80" y="240" width="1280" height="60" rx="8" fill="#FFFFFF" stroke="#E5E7EB"/>
<rect x="80" y="320" width="400" height="220" rx="12" fill="#FFFFFF" stroke="#E5E7EB"/><rect x="96" y="336" width="368" height="120" rx="8" fill="#EEF2FF"/><text x="100" y="470" font-size="14" fill="#6B7280">20 Q • 15 min • Medium</text><rect x="336" y="480" width="128" height="40" rx="8" fill="#4F46E5"/><text x="360" y="506" font-size="14" fill="#FFFFFF">Start Quiz</text>
<rect x="520" y="320" width="400" height="220" rx="12" fill="#FFFFFF" stroke="#E5E7EB"/><rect x="536" y="336" width="368" height="120" rx="8" fill="#EEF2FF"/><text x="540" y="470" font-size="14" fill="#6B7280">30 Q • 20 min • Hard</text><rect x="776" y="480" width="128" height="40" rx="8" fill="#4F46E5"/><text x="800" y="506" font-size="14" fill="#FFFFFF">Start Quiz</text>
<rect x="960" y="320" width="400" height="220" rx="12" fill="#FFFFFF" stroke="#E5E7EB"/><rect x="976" y="336" width="368" height="120" rx="8" fill="#EEF2FF"/><text x="980" y="470" font-size="14" fill="#6B7280">10 Q • 10 min • Easy</text><rect x="1216" y="480" width="128" height="40" rx="8" fill="#4F46E5"/><text x="1240" y="506" font-size="14" fill="#FFFFFF">Start Quiz</text>
<rect x="640" y="820" width="160" height="40" rx="20" fill="#FFFFFF" stroke="#E5E7EB"/>
</svg>