<svg xmlns="http://www.w3.org/2000/svg" width="1000" height="700"><rect width="100%" height="100%" fill="#fff"/>
<rect x="60" y="60" width="260" height="100" rx="8" fill="#F3F4F6" stroke="#E5E7EB"/><text x="80" y="80" font-size="12">users</text><text x="80" y="100" font-size="11">id, username, password_hash, role</text>
<rect x="360" y="60" width="260" height="100" rx="8" fill="#F3F4F6" stroke="#E5E7EB"/><text x="380" y="80" font-size="12">quizzes</text><text x="380" y="100" font-size="11">id, title, category, difficulty, duration</text>
<rect x="660" y="60" width="300" height="140" rx="8" fill="#F3F4F6" stroke="#E5E7EB"/><text x="680" y="80" font-size="12">questions</text><text x="680" y="100" font-size="11">id, text, optionA, optionB, optionC, optionD, correctIndex, explanation, category, difficulty</text>
<rect x="360" y="220" width="240" height="80" rx="8" fill="#F3F4F6" stroke="#E5E7EB"/><text x="380" y="240" font-size="12">quiz_questions</text><text x="380" y="260" font-size="11">quiz_id, question_id</text>
<rect x="60" y="360" width="260" height="120" rx="8" fill="#F3F4F6" stroke="#E5E7EB"/><text x="80" y="380" font-size="12">quiz_attempts</text><text x="80" y="400" font-size="11">id, user_id, quiz_id, started_at, submitted_at, total_questions, correct_count</text>
<rect x="360" y="520" width="300" height="120" rx="8" fill="#F3F4F6" stroke="#E5E7EB"/><text x="380" y="540" font-size="12">answer_selections</text><text x="380" y="560" font-size="11">id, attempt_id, question_id, selected_index, is_correct</text>
<line x1="190" y1="160" x2="190" y2="360" stroke="#9CA3AF"/><text x="150" y="260" font-size="11">1..*</text>
<line x1="490" y1="160" x2="480" y2="220" stroke="#9CA3AF"/><text x="470" y="190" font-size="11">1..*</text>
<line x1="810" y1="200" x2="480" y2="220" stroke="#9CA3AF"/><text x="650" y="210" font-size="11">1..*</text>
<line x1="490" y1="300" x2="190" y2="420" stroke="#9CA3AF"/><text x="330" y="350" font-size="11">1..*</text>
<line x1="690" y1="200" x2="510" y2="580" stroke="#9CA3AF"/><text x="600" y="380" font-size="11">1..1</text>
<line x1="190" y1="480" x2="510" y2="580" stroke="#9CA3AF"/><text x="330" y="540" font-size="11">1..*</text>
</svg>