<svg xmlns="http://www.w3.org/2000/svg" width="900" height="500"><rect width="100%" height="100%" fill="#fff"/><circle cx="100" cy="100" r="40" fill="#E5E7EB"/><text x="80" y="105" font-size="12">Learner</text><rect x="250" y="60" width="180" height="40" rx="8" fill="#F3F4F6" stroke="#E5E7EB"/><text x="260" y="85" font-size="12">Browse Catalog</text><rect x="250" y="120" width="180" height="40" rx="8" fill="#F3F4F6" stroke="#E5E7EB"/><text x="260" y="145" font-size="12">Filter by Category/Difficulty</text><rect x="250" y="180" width="180" height="40" rx="8" fill="#F3F4F6" stroke="#E5E7EB"/><text x="260" y="205" font-size="12">Start Quiz</text><rect x="250" y="240" width="180" height="40" rx="8" fill="#F3F4F6" stroke="#E5E7EB"/><text x="260" y="265" font-size="12">Submit Quiz</text><rect x="250" y="300" width="180" height="40" rx="8" fill="#F3F4F6" stroke="#E5E7EB"/><text x="260" y="325" font-size="12">View Results</text><rect x="250" y="360" width="180" height="40" rx="8" fill="#F3F4F6" stroke="#E5E7EB"/><text x="260" y="385" font-size="12">Review Answers</text><line x1="140" y1="100" x2="250" y2="80" stroke="#9CA3AF"/><line x1="140" y1="100" x2="250" y2="140" stroke="#9CA3AF"/><line x1="140" y1="100" x2="250" y2="200" stroke="#9CA3AF"/><line x1="140" y1="100" x2="250" y2="260" stroke="#9CA3AF"/><line x1="140" y1="100" x2="250" y2="320" stroke="#9CA3AF"/><line x1="140" y1="100" x2="250" y2="380" stroke="#9CA3AF"/></svg>