<svg xmlns="http://www.w3.org/2000/svg" width="1000" height="500"><rect width="100%" height="100%" fill="#fff"/><text x="60" y="30" font-size="14">Learner</text><text x="260" y="30" font-size="14">Web UI</text><text x="460" y="30" font-size="14">QuizController</text><text x="660" y="30" font-size="14">ScoringService</text><text x="860" y="30" font-size="14">AttemptRepository</text><line x1="80" y1="40" x2="80" y2="480" stroke="#9CA3AF"/><line x1="280" y1="40" x2="280" y2="480" stroke="#9CA3AF"/><line x1="480" y1="40" x2="480" y2="480" stroke="#9CA3AF"/><line x1="680" y1="40" x2="680" y2="480" stroke="#9CA3AF"/><line x1="880" y1="40" x2="880" y2="480" stroke="#9CA3AF"/>
<rect x="270" y="80" width="20" height="200" fill="#E5E7EB"/><rect x="470" y="100" width="20" height="180" fill="#E5E7EB"/><rect x="670" y="140" width="20" height="140" fill="#E5E7EB"/>
<text x="100" y="100" font-size="12">Submit Answers</text><line x1="80" y1="105" x2="280" y2="105" stroke="#111827" marker-end="url(#a)"/>
<text x="300" y="130" font-size="12">POST /submit</text><line x1="280" y1="135" x2="480" y2="135" stroke="#111827" marker-end="url(#a)"/>
<text x="500" y="170" font-size="12">Compute score</text><line x1="480" y1="175" x2="680" y2="175" stroke="#111827" marker-end="url(#a)"/>
<text x="700" y="210" font-size="12">Persist attempt</text><line x1="680" y1="215" x2="880" y2="215" stroke="#111827" marker-end="url(#a)"/>
<text x="700" y="240" font-size="12">Return score</text><line x1="880" y1="245" x2="680" y2="245" stroke="#111827"/>
<line x1="680" y1="275" x2="480" y2="275" stroke="#111827"/>
<line x1="480" y1="305" x2="280" y2="305" stroke="#111827"/>
<line x1="280" y1="335" x2="80" y2="335" stroke="#111827"/>
<defs><marker id="a" markerWidth="6" markerHeight="6" refX="5" refY="3" orient="auto"><path d="M0,0 L6,3 L0,6 z" fill="#111827"/></marker></defs></svg>